HIERARCHY
ROOT Hips
{
	OFFSET 0.000000 83.214638 0.000000
	CHANNELS 6 Xposition Yposition Zposition Xrotation Yrotation Zrotation
	JOINT Pelvis
	{
		OFFSET 0.000000 0.000000 0.000000
		CHANNELS 3 Xrotation Yrotation Zrotation
		JOINT LeftUpLeg
		{
			OFFSET 8.479700 -4.795502 -0.379100
			CHANNELS 3 Xrotation Yrotation Zrotation
			JOINT LeftLeg
			{
				OFFSET 0.024144 -32.555107 0.112900
				CHANNELS 3 Xrotation Yrotation Zrotation
				JOINT LeftFoot
				{
					OFFSET -0.024144 -32.638630 -3.012600
					CHANNELS 3 Xrotation Yrotation Zrotation
					JOINT LeftToeBase
					{
						OFFSET 0.970200 -13.225400 11.864200
						CHANNELS 3 Xrotation Yrotation Zrotation
						End Site
						{
							OFFSET 0.000000 12.319262 0.000000
						}
					}
					JOINT LFootTongue
					{
						OFFSET 1.142400 -1.059800 6.665200
						CHANNELS 3 Xrotation Yrotation Zrotation
						End Site
						{
							OFFSET 0.000000 12.319262 0.000000
						}
					}
				}
				JOINT LeftPantLeg
				{
					OFFSET 0.918482 -16.533964 -2.284700
					CHANNELS 3 Xrotation Yrotation Zrotation
					End Site
					{
						OFFSET 0.350399 24.744368 0.000000
					}
				}
			}
		}
		JOINT RightUpLeg
		{
			OFFSET -8.479700 -4.795502 -0.379100
			CHANNELS 3 Xrotation Yrotation Zrotation
			JOINT RightLeg
			{
				OFFSET -0.023144 -32.555092 0.112900
				CHANNELS 3 Xrotation Yrotation Zrotation
				JOINT RightFoot
				{
					OFFSET 0.023144 -32.638641 -3.012700
					CHANNELS 3 Xrotation Yrotation Zrotation
					JOINT RightToeBase
					{
						OFFSET -0.970200 -13.225400 11.864200
						CHANNELS 3 Xrotation Yrotation Zrotation
						End Site
						{
							OFFSET 0.000000 12.319244 0.000000
						}
					}
					JOINT RFootTongue
					{
						OFFSET -1.142200 -1.059800 6.665200
						CHANNELS 3 Xrotation Yrotation Zrotation
						End Site
						{
							OFFSET 0.000000 12.319243 0.000000
						}
					}
				}
				JOINT RightPantLeg
				{
					OFFSET -0.919482 -16.533978 -2.284800
					CHANNELS 3 Xrotation Yrotation Zrotation
					End Site
					{
						OFFSET -0.350400 24.744419 0.000000
					}
				}
			}
		}
	}
	JOINT Spine
	{
		OFFSET 0.000000 7.722000 1.166200
		CHANNELS 3 Xrotation Yrotation Zrotation
		JOINT Spine1
		{
			OFFSET 0.000000 12.024101 0.248800
			CHANNELS 3 Xrotation Yrotation Zrotation
			JOINT Spine2
			{
				OFFSET 0.000000 11.502998 -0.491200
				CHANNELS 3 Xrotation Yrotation Zrotation
				JOINT Neck
				{
					OFFSET 0.000000 18.430702 -3.123100
					CHANNELS 3 Xrotation Yrotation Zrotation
					JOINT Head
					{
						OFFSET 0.000000 9.051102 1.034000
						CHANNELS 3 Xrotation Yrotation Zrotation
						JOINT HairB
						{
							OFFSET 0.208400 24.786102 24.822300
							CHANNELS 3 Xrotation Yrotation Zrotation
							End Site
							{
								OFFSET 0.000000 32.263779 0.000000
							}
						}
						JOINT HairA
						{
							OFFSET -7.081100 24.428299 23.196600
							CHANNELS 3 Xrotation Yrotation Zrotation
							End Site
							{
								OFFSET 0.000000 32.263779 0.000000
							}
						}
						JOINT Hat
						{
							OFFSET 16.728800 15.048294 -15.439601
							CHANNELS 3 Xrotation Yrotation Zrotation
							End Site
							{
								OFFSET 0.000000 32.263779 0.000000
							}
						}
					}
				}
				JOINT LeftShoulder
				{
					OFFSET 6.197800 13.665199 -4.064700
					CHANNELS 3 Xrotation Yrotation Zrotation
					JOINT LeftArm
					{
						OFFSET 7.778100 -0.187103 -1.709300
						CHANNELS 3 Xrotation Yrotation Zrotation
						JOINT LeftForeArm
						{
							OFFSET 22.049376 0.000000 0.000000
							CHANNELS 3 Xrotation Yrotation Zrotation
							JOINT LeftHand
							{
								OFFSET 23.009392 0.000000 0.000000
								CHANNELS 3 Xrotation Yrotation Zrotation
								JOINT LeftHandThumb1
								{
									OFFSET 3.507191 -2.063065 3.133727
									CHANNELS 3 Xrotation Yrotation Zrotation
									JOINT LeftHandThumb2
									{
										OFFSET 3.101337 -1.790558 1.790558
										CHANNELS 3 Xrotation Yrotation Zrotation
										JOINT LeftHandThumb3
										{
											OFFSET 3.058640 -1.765907 1.765906
											CHANNELS 3 Xrotation Yrotation Zrotation
											End Site
											{
												OFFSET -0.415260 3.926476 -0.049563
											}
										}
									}
								}
								JOINT LeftHandIndex1
								{
									OFFSET 11.334419 -0.901459 3.706815
									CHANNELS 3 Xrotation Yrotation Zrotation
									JOINT LeftHandIndex2
									{
										OFFSET 3.283112 0.000000 0.000000
										CHANNELS 3 Xrotation Yrotation Zrotation
										JOINT LeftHandIndex3
										{
											OFFSET 3.323853 0.000000 0.000000
											CHANNELS 3 Xrotation Yrotation Zrotation
											End Site
											{
												OFFSET -1.135597 3.097809 0.402452
											}
										}
									}
								}
								JOINT LeftHandMiddle1
								{
									OFFSET 11.335861 0.000000 0.000000
									CHANNELS 3 Xrotation Yrotation Zrotation
									JOINT LeftHandMiddle2
									{
										OFFSET 3.410492 0.000000 0.000000
										CHANNELS 3 Xrotation Yrotation Zrotation
										JOINT LeftHandMiddle3
										{
											OFFSET 3.312172 0.000000 0.000000
											CHANNELS 3 Xrotation Yrotation Zrotation
											End Site
											{
												OFFSET -1.150200 3.080154 0.400270
											}
										}
									}
								}
								JOINT LeftHandRing1
								{
									OFFSET 11.514786 -0.013176 -3.003090
									CHANNELS 3 Xrotation Yrotation Zrotation
									JOINT LeftHandRing2
									{
										OFFSET 3.053307 0.000000 0.000000
										CHANNELS 3 Xrotation Yrotation Zrotation
										JOINT LeftHandRing3
										{
											OFFSET 3.295807 0.000000 0.000000
											CHANNELS 3 Xrotation Yrotation Zrotation
											End Site
											{
												OFFSET -1.281006 3.013344 0.375733
											}
										}
									}
								}
								JOINT LeftHandPinky1
								{
									OFFSET 10.518692 -0.960396 -5.730441
									CHANNELS 3 Xrotation Yrotation Zrotation
									JOINT LeftHandPinky2
									{
										OFFSET 2.861649 0.000000 0.000000
										CHANNELS 3 Xrotation Yrotation Zrotation
										JOINT LeftHandPinky3
										{
											OFFSET 2.863380 0.000000 0.000000
											CHANNELS 3 Xrotation Yrotation Zrotation
											End Site
											{
												OFFSET -0.843597 2.711159 0.369971
											}
										}
									}
								}
							}
							JOINT LSleeve
							{
								OFFSET 6.676277 -0.344902 -1.011730
								CHANNELS 3 Xrotation Yrotation Zrotation
								End Site
								{
									OFFSET 0.000000 14.885353 0.000000
								}
							}
						}
					}
				}
				JOINT RightShoulder
				{
					OFFSET -6.197800 13.665199 -4.064700
					CHANNELS 3 Xrotation Yrotation Zrotation
					JOINT RightArm
					{
						OFFSET -7.778100 -0.187103 -1.709300
						CHANNELS 3 Xrotation Yrotation Zrotation
						JOINT RightForeArm
						{
							OFFSET -22.049376 0.000000 0.000000
							CHANNELS 3 Xrotation Yrotation Zrotation
							JOINT RightHand
							{
								OFFSET -23.009392 0.000000 0.000000
								CHANNELS 3 Xrotation Yrotation Zrotation
								JOINT RightHandThumb1
								{
									OFFSET -3.507191 -2.063065 3.133727
									CHANNELS 3 Xrotation Yrotation Zrotation
									JOINT RightHandThumb2
									{
										OFFSET -3.101337 -1.790558 1.790558
										CHANNELS 3 Xrotation Yrotation Zrotation
										JOINT RightHandThumb3
										{
											OFFSET -3.058640 -1.765907 1.765906
											CHANNELS 3 Xrotation Yrotation Zrotation
											End Site
											{
												OFFSET 0.415260 3.926476 -0.049563
											}
										}
									}
								}
								JOINT RightHandIndex1
								{
									OFFSET -11.334419 -0.901459 3.706815
									CHANNELS 3 Xrotation Yrotation Zrotation
									JOINT RightHandIndex2
									{
										OFFSET -3.283112 0.000000 0.000000
										CHANNELS 3 Xrotation Yrotation Zrotation
										JOINT RightHandIndex3
										{
											OFFSET -3.323853 0.000000 0.000000
											CHANNELS 3 Xrotation Yrotation Zrotation
											End Site
											{
												OFFSET 1.135597 3.097809 0.402452
											}
										}
									}
								}
								JOINT RightHandMiddle1
								{
									OFFSET -11.335861 0.000000 0.000000
									CHANNELS 3 Xrotation Yrotation Zrotation
									JOINT RightHandMiddle2
									{
										OFFSET -3.410492 0.000000 0.000000
										CHANNELS 3 Xrotation Yrotation Zrotation
										JOINT RightHandMiddle3
										{
											OFFSET -3.312172 0.000000 0.000000
											CHANNELS 3 Xrotation Yrotation Zrotation
											End Site
											{
												OFFSET 1.150200 3.080154 0.400270
											}
										}
									}
								}
								JOINT RightHandRing1
								{
									OFFSET -11.514786 -0.013176 -3.003090
									CHANNELS 3 Xrotation Yrotation Zrotation
									JOINT RightHandRing2
									{
										OFFSET -3.053307 0.000000 0.000000
										CHANNELS 3 Xrotation Yrotation Zrotation
										JOINT RightHandRing3
										{
											OFFSET -3.295807 0.000000 0.000000
											CHANNELS 3 Xrotation Yrotation Zrotation
											End Site
											{
												OFFSET 1.281006 3.013344 0.375733
											}
										}
									}
								}
								JOINT RightHandPinky1
								{
									OFFSET -10.518692 -0.960396 -5.730441
									CHANNELS 3 Xrotation Yrotation Zrotation
									JOINT RightHandPinky2
									{
										OFFSET -2.861649 0.000000 0.000000
										CHANNELS 3 Xrotation Yrotation Zrotation
										JOINT RightHandPinky3
										{
											OFFSET -2.863380 0.000000 0.000000
											CHANNELS 3 Xrotation Yrotation Zrotation
											End Site
											{
												OFFSET 0.843597 2.711159 0.369971
											}
										}
									}
								}
							}
							JOINT RSleeve
							{
								OFFSET -6.676277 -0.344902 -1.011730
								CHANNELS 3 Xrotation Yrotation Zrotation
								End Site
								{
									OFFSET 0.000000 14.885353 0.000000
								}
							}
						}
					}
				}
				JOINT Backpack
				{
					OFFSET 0.000000 -2.471497 36.677502
					CHANNELS 3 Xrotation Yrotation Zrotation
					End Site
					{
						OFFSET 0.000000 20.427315 0.000000
					}
				}
				JOINT Hood
				{
					OFFSET 0.000000 18.754097 -10.431000
					CHANNELS 3 Xrotation Yrotation Zrotation
					JOINT Hood1
					{
						OFFSET 0.000000 -5.011002 -7.685901
						CHANNELS 3 Xrotation Yrotation Zrotation
						End Site
						{
							OFFSET 0.000000 9.175140 0.000000
						}
					}
				}
				JOINT LHoodieString
				{
					OFFSET 5.250500 16.397697 3.089900
					CHANNELS 3 Xrotation Yrotation Zrotation
					JOINT LHoodieString1
					{
						OFFSET 0.257700 -6.364304 3.694600
						CHANNELS 3 Xrotation Yrotation Zrotation
						JOINT LHoodieString2
						{
							OFFSET 0.000000 -9.643799 2.679100
							CHANNELS 3 Xrotation Yrotation Zrotation
							End Site
							{
								OFFSET 0.000000 10.009018 0.000000
							}
						}
					}
				}
				JOINT RHoodieString
				{
					OFFSET -5.250500 16.397697 3.089900
					CHANNELS 3 Xrotation Yrotation Zrotation
					JOINT RHoodieString1
					{
						OFFSET -0.257700 -6.364304 3.694600
						CHANNELS 3 Xrotation Yrotation Zrotation
						JOINT RHoodieString2
						{
							OFFSET 0.000000 -9.643799 2.679100
							CHANNELS 3 Xrotation Yrotation Zrotation
							End Site
							{
								OFFSET 0.000000 10.009018 0.000000
							}
						}
					}
				}
			}
			JOINT LBackpack_Strap
			{
				OFFSET 15.223200 -7.719803 -6.610900
				CHANNELS 3 Xrotation Yrotation Zrotation
				End Site
				{
					OFFSET 0.000000 16.040596 0.000000
				}
			}
			JOINT RBackpack_Strap
			{
				OFFSET -15.223000 -7.719803 -6.610900
				CHANNELS 3 Xrotation Yrotation Zrotation
				End Site
				{
					OFFSET 0.000000 16.040596 0.000000
				}
			}
		}
	}
	JOINT BoyFacialAnim_Joint
	{
		OFFSET 1.000000 -82.208099 -1.550900
		CHANNELS 3 Xrotation Yrotation Zrotation
		End Site
		{
			OFFSET 0.000000 30.012791 0.000000
		}
	}
}
MOTION
Frames: 4
Frame Time: 0.033333
1.511297 72.708450 -43.643871 14.437596 -32.186047 15.414502 -0.000000 0.000003 0.000000 -52.508473 -0.413081 14.449485 21.146372 0.757963 6.720142 8.110662 -0.466213 -21.811589 0.000000 -0.000001 -0.000000 0.000000 -0.000001 -0.000000 0.000003 -0.000002 0.000001 -40.110228 6.375398 -21.636482 60.707015 6.636217 -9.863928 -24.220061 0.885168 17.105570 0.000001 0.000001 0.000001 0.000001 0.000001 0.000001 -0.000000 0.000002 0.000001 12.903686 3.465826 4.222141 9.844037 2.682966 3.792499 9.808169 2.830336 3.735194 -0.821835 2.188081 10.607033 -24.207596 25.895715 -10.633757 0.000000 -0.000000 -0.000001 0.000000 -0.000000 -0.000001 0.000000 -0.000000 -0.000001 3.516277 -14.803107 -10.105968 -16.953513 21.442754 -44.394625 0.000005 -69.649420 0.000009 -27.878153 49.158275 20.965366 -27.638816 2.105402 5.749247 -15.492322 47.963897 -4.695820 -0.000000 -0.000004 -0.000002 0.728712 3.087806 -26.551558 -0.000003 0.000003 0.000004 -0.000002 -0.000001 -0.000005 0.727844 3.086081 -26.535527 0.000005 0.001922 -0.015963 -0.000002 -0.000001 -0.000001 0.728712 3.087795 -26.551558 -0.000003 -0.000003 0.000011 0.000000 -0.000001 -0.000006 2.536039 6.720405 -26.195731 -0.018087 -4.054266 -0.511043 0.000000 0.000001 -0.000000 -0.000000 0.000001 0.000000 1.398150 16.911326 9.444447 -148.977450 101.464782 134.485414 0.085186 89.832888 -0.085770 35.019056 6.249966 0.814223 26.616074 12.440182 -14.324471 -7.154099 -16.652426 -16.262385 -0.000002 -0.000001 -0.000000 0.433008 -2.419703 20.288339 -0.000005 -0.000007 0.000036 0.000001 -0.000001 0.000005 0.433005 -2.419709 20.288343 0.000004 0.000004 0.000043 0.000000 0.000001 -0.000000 0.433010 -2.419704 20.288344 -0.000001 0.000004 0.000040 0.000001 0.000003 0.000002 0.433007 -2.419700 20.288334 -0.000003 -0.000009 0.000028 0.000001 0.000002 0.000001 -0.000000 0.000000 -0.000004 -0.000001 0.000000 -0.000000 -0.000001 0.000000 -0.000000 -0.000001 0.000000 -0.000000 -0.000001 0.000000 -0.000000 -0.000001 0.000000 0.000001 0.000000 0.000001 -0.000000 -0.000001 0.000000 -0.000000 -0.000001 0.000000 0.000001 0.000000 0.000001 -0.000000 0.000002 0.000001 0.000003 0.000002 0.000001 0.000003 -0.000000 0.000003 0.000000 
2.419138 73.808533 -45.725197 17.071153 -33.381580 18.155029 -0.000000 -0.000002 0.000000 -56.567715 -0.179627 13.954675 29.945127 -1.111480 4.429385 7.385918 -0.304610 -20.033640 0.000000 0.000000 0.000000 0.000000 0.000000 0.000000 -0.000001 0.000002 0.000000 -43.257869 7.701806 -21.249912 57.654665 6.773625 -9.877260 -21.937087 2.047777 17.288944 0.000001 0.000003 -0.000000 0.000001 0.000003 -0.000000 -0.000001 -0.000001 -0.000004 14.214681 2.237074 4.458222 10.884384 1.767979 4.002904 10.865094 1.899210 3.963716 0.640174 2.290016 12.499360 -22.863107 26.447341 -6.549093 0.000000 -0.000000 -0.000001 0.000000 -0.000000 -0.000001 0.000000 -0.000000 -0.000001 3.175717 -13.951146 -10.080602 -13.769294 23.453731 -54.024358 -0.000015 -65.194654 -0.000017 -35.040592 41.202488 24.403185 -27.195233 2.835145 6.502101 -14.907334 48.035245 -3.650529 0.000002 -0.000001 -0.000004 0.819606 3.263097 -28.192263 -0.000001 0.000001 -0.000003 -0.000000 0.000001 -0.000003 0.818693 3.261394 -28.176246 0.000007 0.001924 -0.015956 0.000001 -0.000001 -0.000002 0.819607 3.263085 -28.192270 -0.000000 -0.000005 -0.000041 -0.000002 0.000000 0.000001 2.731436 6.842434 -27.850329 -0.018084 -4.054261 -0.511014 0.000000 0.000000 0.000003 0.000000 0.000000 0.000002 2.130958 18.825535 9.319411 -158.526396 111.834048 142.572672 -0.000323 100.359548 0.000304 30.635301 0.169016 -5.339078 27.825900 12.197128 -12.016680 -6.189141 -16.437385 -17.024154 -0.000003 0.000001 -0.000000 0.576159 -2.776051 23.445833 -0.000001 0.000000 0.000035 -0.000001 0.000003 0.000004 0.576155 -2.776048 23.445832 -0.000002 0.000007 0.000096 0.000001 0.000002 0.000000 0.576162 -2.776045 23.445837 -0.000001 0.000015 0.000125 -0.000001 0.000001 0.000004 0.576156 -2.776039 23.445830 0.000003 -0.000013 0.000140 -0.000000 0.000002 -0.000001 0.000001 -0.000001 -0.000002 -0.000000 0.000001 0.000003 -0.000000 0.000001 0.000003 -0.000000 0.000001 0.000003 -0.000000 0.000001 0.000003 -0.000000 0.000001 0.000002 0.000002 0.000001 -0.000002 -0.000000 0.000001 0.000003 -0.000000 0.000001 0.000002 0.000002 0.000001 -0.000002 -0.000000 0.000000 0.000003 -0.000000 0.000000 0.000003 -0.000000 -0.000002 0.000000 
3.256964 75.043098 -47.182678 19.415021 -33.814009 20.523861 -0.000001 0.000001 -0.000000 -59.496624 1.031554 12.985308 38.904454 -0.959478 2.277459 4.316000 0.220772 -16.764803 -0.000000 0.000002 -0.000000 -0.000000 0.000002 0.000000 0.000001 -0.000001 -0.000001 -45.009676 7.763935 -21.476017 53.448747 7.261718 -9.907903 -20.039891 3.098050 17.227668 0.000000 -0.000003 0.000000 0.000000 -0.000003 0.000000 -0.000002 -0.000001 -0.000001 15.112167 0.943021 4.695598 11.585025 0.837900 4.216627 11.579992 0.966945 4.195169 3.345514 2.307256 13.581694 -18.342471 26.259496 -3.278123 -0.000000 0.000001 -0.000001 -0.000000 0.000001 -0.000001 -0.000000 0.000001 -0.000001 2.839695 -13.263505 -9.987407 -11.590543 22.293567 -61.243021 -0.000011 -60.891731 -0.000023 -36.311034 32.736082 21.208516 -26.722850 3.586282 7.203364 -14.335759 48.115298 -2.652166 0.000000 -0.000002 0.000001 0.913530 3.432271 -29.800587 0.000001 0.000003 -0.000021 -0.000000 0.000002 -0.000003 0.912570 3.430597 -29.784539 0.000003 0.001921 -0.015926 0.000000 0.000001 -0.000005 0.913534 3.432258 -29.800590 -0.000008 -0.000004 0.000052 -0.000000 -0.000001 -0.000002 2.926323 6.956528 -29.472488 -0.018099 -4.054265 -0.510995 0.000002 0.000000 -0.000000 -0.000000 0.000000 0.000004 2.950476 20.630501 9.137592 -169.127587 121.634905 151.995697 0.000224 106.961732 -0.000217 26.062636 -6.424402 -10.675927 29.039396 12.011642 -9.734765 -5.196526 -16.202689 -17.736167 -0.000001 -0.000002 -0.000003 0.735796 -3.117962 26.550246 0.001766 -0.156804 1.286789 -0.000000 -0.000003 -0.000002 0.735795 -3.117954 26.550250 0.001762 -0.156811 1.286792 0.000001 0.000001 -0.000000 0.735800 -3.117958 26.550245 0.001762 -0.156804 1.286799 -0.000000 0.000001 0.000002 0.735796 -3.117953 26.550250 0.001762 -0.156799 1.286786 -0.000000 -0.000004 -0.000002 -0.000001 -0.000000 -0.000003 -0.000000 0.000001 0.000001 -0.000000 0.000001 0.000001 -0.000000 0.000001 0.000001 -0.000000 0.000001 0.000001 -0.000000 0.000001 -0.000001 0.000002 -0.000001 0.000002 -0.000000 0.000001 0.000001 -0.000000 0.000001 -0.000001 0.000002 -0.000001 0.000002 -0.000000 0.000000 -0.000000 -0.000000 0.000000 -0.000000 -0.000001 0.000001 -0.000000 
3.935333 76.101433 -48.300804 21.716725 -33.462965 21.899859 -0.000000 0.000000 -0.000001 -60.990359 2.182884 11.867011 46.001922 0.137400 0.792947 0.024588 0.731693 -13.694856 -0.000000 0.000000 0.000000 -0.000000 0.000000 0.000000 -0.000000 0.000003 -0.000000 -46.555191 6.770043 -21.297986 49.467860 8.257615 -9.944111 -17.983477 3.406966 16.848846 0.000001 0.000001 -0.000000 0.000001 0.000001 -0.000000 0.000001 -0.000000 0.000000 15.558915 -0.345659 4.914106 11.913625 -0.072910 4.417021 11.919654 0.073047 4.411570 6.827545 2.257586 13.714315 -11.032519 25.645991 -1.605408 0.000001 -0.000000 0.000000 0.000001 -0.000000 0.000000 0.000001 -0.000000 0.000000 2.518146 -12.679171 -9.845322 -10.873122 18.988660 -65.482294 0.000019 -58.093511 0.000026 -34.099883 24.988978 15.482256 -26.215731 4.354557 7.840739 -13.774153 48.197486 -1.722746 0.000002 -0.000004 0.000001 1.009055 3.593610 -31.359362 0.006582 0.301586 -2.499873 -0.000002 0.000001 0.000002 1.008050 3.591963 -31.343315 0.006663 0.303517 -2.515864 0.000000 -0.000001 0.000000 1.009058 3.593596 -31.359369 0.006572 0.301592 -2.499877 -0.000001 0.000000 -0.000000 3.118216 7.061811 -31.044873 -0.008805 -3.752737 -3.010285 0.000001 -0.000000 0.000001 0.000001 0.000002 0.000002 3.694270 21.911817 8.955881 -178.838873 130.521855 162.158526 -0.000099 109.570530 0.000098 22.039163 -13.069132 -14.010899 30.241953 11.888216 -7.519593 -4.195243 -15.973642 -18.370659 0.000000 -0.000000 -0.000002 0.907723 -3.440095 29.555352 0.026002 -0.602029 4.946004 0.000002 -0.000002 0.000001 0.907726 -3.440093 29.555352 0.026004 -0.602003 4.946024 -0.000003 0.000001 0.000002 0.907726 -3.440088 29.555356 0.025992 -0.602008 4.946019 -0.000001 -0.000001 0.000000 0.907726 -3.440078 29.555352 0.026000 -0.602008 4.946018 -0.000001 -0.000001 0.000000 -0.000001 0.000001 -0.000001 -0.000001 0.000002 -0.000002 -0.000001 0.000002 -0.000002 -0.000001 0.000002 -0.000002 -0.000001 0.000002 -0.000002 -0.000001 0.000002 -0.000003 -0.000001 -0.000000 0.000001 -0.000001 0.000002 -0.000002 -0.000001 0.000002 -0.000003 -0.000001 -0.000000 0.000001 0.000001 -0.000001 0.000002 0.000001 -0.000001 0.000002 -0.000000 0.000000 -0.000001 
